# xmcd CD database file
#
# Track frame offsets:
#	150
#	16382
#	60874
#	94916
#	142918
#	164030
#	202337
#	255664
#	294816
#
# Disc length: 4517 seconds
#
# Revision: 0
# Processed by: cddbd v1.5.1PL0 Copyright (c) Steve Scherf et al.
# Submitted via: CDex 1.51
#
DISCID=7c11a309
DTITLE=Emily Remler Trio - Live at Perth, Australia [CD1]
DYEAR=1988
DGENRE=Jazz
TTITLE0=Yesterdays
TTITLE1=Secret Love
TTITLE2=Triste
TTITLE3=All Blues
TTITLE4=Tenor Madness
TTITLE5=What's New
TTITLE6=Days of Wine and Roses
TTITLE7=Blue Bossa
TTITLE8=Polka Dots and Moonbeams
EXTD=YEAR: 1988
EXTT0=
EXTT1=
EXTT2=
EXTT3=
EXTT4=
EXTT5=
EXTT6=
EXTT7=
EXTT8=
PLAYORDER=
